<svg width="1024" height="1024" viewBox="0 0 1024 1024" fill="none" xmlns="http://www.w3.org/2000/svg">
<path d="M761.919 808.326C759.387 808.072 752.631 808.283 749.648 808.288L305.17 808.335C275.011 808.366 248.184 810.499 222.419 790.98C190.902 767.105 188.97 740.315 189.001 705.111L189.006 318.813C189.031 267.272 207.5 221 262 215.976H344.001C402.714 215.983 400 211 442.011 246.608L481.213 284.561C501.699 304.551 497.286 307.765 528.223 307.682L733.485 307.632C756.723 307.63 776.59 306.716 796.619 320.801C832.381 345.949 836.213 372.278 836.182 411.956L836.197 708.332C836.184 761.239 818.536 798.258 761.919 808.326ZM360.795 421.379L284.578 421.395C235.44 421.379 232.875 414.46 232.917 468.978L232.933 654.896C232.933 678.546 232.576 701.745 233.447 725.657C234.579 756.811 257.353 764.871 283.336 764.783L665.601 764.733L726.199 764.747C745.924 764.745 765.95 768.041 780.519 752.714C795.637 736.812 792.94 716.418 792.915 696.175L792.911 447.373C792.81 418.758 780.919 421.397 758.419 421.377L360.795 421.379Z" fill="black"/>
</svg>
