<svg width="1024" height="1024" viewBox="0 0 1024 1024" fill="none" xmlns="http://www.w3.org/2000/svg">
<path d="M577.383 751C594.584 751 608.529 737.214 608.529 720.209C608.529 703.204 594.584 689.419 577.383 689.419C560.181 689.419 546.236 703.204 546.236 720.209C546.236 737.214 560.181 751 577.383 751Z" fill="black"/>
<path d="M661.618 666.527C678.82 666.527 692.764 652.742 692.764 635.737C692.764 618.732 678.82 604.946 661.618 604.946C644.417 604.946 630.472 618.732 630.472 635.737C630.472 652.742 644.417 666.527 661.618 666.527Z" fill="black"/>
<path d="M745.854 582.053C763.055 582.053 777 568.268 777 551.263C777 534.258 763.055 520.473 745.854 520.473C728.652 520.473 714.708 534.258 714.708 551.263C714.708 568.268 728.652 582.053 745.854 582.053Z" fill="black"/>
</svg>
