<svg width="1024" height="1024" viewBox="0 0 1024 1024" fill="none" xmlns="http://www.w3.org/2000/svg">
<path d="M745.854 497.581C763.055 497.581 777 483.795 777 466.79C777 449.785 763.055 436 745.854 436C728.652 436 714.708 449.785 714.708 466.79C714.708 483.795 728.652 497.581 745.854 497.581Z" fill="black"/>
<path d="M661.618 582.053C678.82 582.053 692.764 568.268 692.764 551.263C692.764 534.258 678.82 520.473 661.618 520.473C644.417 520.473 630.472 534.258 630.472 551.263C630.472 568.268 644.417 582.053 661.618 582.053Z" fill="black"/>
<path d="M577.383 666.527C594.584 666.527 608.529 652.742 608.529 635.737C608.529 618.732 594.584 604.946 577.383 604.946C560.181 604.946 546.236 618.732 546.236 635.737C546.236 652.742 560.181 666.527 577.383 666.527Z" fill="black"/>
<path d="M493.146 751C510.348 751 524.292 737.214 524.292 720.209C524.292 703.204 510.348 689.419 493.146 689.419C475.945 689.419 462 703.204 462 720.209C462 737.214 475.945 751 493.146 751Z" fill="black"/>
</svg>
